<?xml version="1.0" encoding="UTF-8"?>
<svg id="_레이어_1" data-name="레이어_1" xmlns="http://www.w3.org/2000/svg" version="1.1" viewBox="0 0 124.1 121.3">
  <!-- Generator: Adobe Illustrator 29.6.0, SVG Export Plug-In . SVG Version: 2.1.1 Build 207)  -->
  <defs>
    <style>
      .st0 {
        fill: none;
        stroke: #6fc092;
        stroke-linecap: round;
        stroke-miterlimit: 10;
        stroke-width: 5px;
      }
    </style>
  </defs>
  <path class="st0" d="M109.5,69.8c11.6-6.5,15.5-21.6,8.8-33.6-6.8-12-21.7-16.4-33.3-9.9-.3.2-.6.4-.9.5"/>
  <path class="st0" d="M22.4,33.4c-3.6-12.8,4.3-26.3,17.6-30,13.3-3.7,26.9,3.7,30.5,16.5s.2.7.3,1"/>
  <path class="st0" d="M101.9,87.9c3.6,12.8-4.3,26.3-17.6,30-13.3,3.7-26.9-3.7-30.5-16.5,0-.3-.2-.7-.3-1"/>
  <path class="st0" d="M14.6,52.1C3,58.6-1,73.7,5.8,85.7c6.8,12,21.7,16.4,33.3,9.9.3-.2.6-.4.9-.5"/>
</svg>